<?xml version="1.0" encoding="UTF-8" standalone="no"?><!DOCTYPE svg PUBLIC "-//W3C//DTD SVG 1.1//EN" "http://www.w3.org/Graphics/SVG/1.1/DTD/svg11.dtd"><svg width="100%" height="100%" viewBox="0 0 13750 9167" version="1.1" xmlns="http://www.w3.org/2000/svg" xmlns:xlink="http://www.w3.org/1999/xlink" xml:space="preserve" xmlns:serif="http://www.serif.com/" style="fill-rule:evenodd;clip-rule:evenodd;"><g id="Notes"><rect id="artboard" x="0" y="0" width="13750" height="9166.67" style="fill:#fff;"/><path d="M1095.83,1216.67l11554.2,-0" style="fill:none;fill-rule:nonzero;stroke:#000;stroke-width:2.08px;"/><text x="1095.83px" y="1341.67px" style="font-family:'LucidaGrande-Bold', 'Lucida Grande', sans-serif;font-weight:600;font-size:54.167px;">Weight/Scale Variations</text><text x="2209.88px" y="1341.67px" style="font-family:'LucidaGrande', 'Lucida Grande', sans-serif;font-weight:500;font-size:54.167px;">Ultralight</text><text x="3509.86px" y="1341.67px" style="font-family:'LucidaGrande', 'Lucida Grande', sans-serif;font-weight:500;font-size:54.167px;">Thin</text><text x="4738.61px" y="1341.67px" style="font-family:'LucidaGrande', 'Lucida Grande', sans-serif;font-weight:500;font-size:54.167px;">Light</text><text x="5941.22px" y="1341.67px" style="font-family:'LucidaGrande', 'Lucida Grande', sans-serif;font-weight:500;font-size:54.167px;">Regular</text><text x="7171.95px" y="1341.67px" style="font-family:'LucidaGrande', 'Lucida Grande', sans-serif;font-weight:500;font-size:54.167px;">Medium</text><text x="8392.28px" y="1341.67px" style="font-family:'LucidaGrande', 'Lucida Grande', sans-serif;font-weight:500;font-size:54.167px;">Semibold</text><text x="9692.83px" y="1341.67px" style="font-family:'LucidaGrande', 'Lucida Grande', sans-serif;font-weight:500;font-size:54.167px;">Bold</text><text x="10908.1px" y="1341.67px" style="font-family:'LucidaGrande', 'Lucida Grande', sans-serif;font-weight:500;font-size:54.167px;">Heavy</text><text x="12154.4px" y="1341.67px" style="font-family:'LucidaGrande', 'Lucida Grande', sans-serif;font-weight:500;font-size:54.167px;">Black</text><path d="M1095.83,7929.17l11554.2,-0" style="fill:none;fill-rule:nonzero;stroke:#000;stroke-width:2.08px;"/><g><path d="M1134.37,8057.62c17.944,0 32.878,-14.892 32.878,-32.837c-0,-17.944 -14.975,-32.836 -32.919,-32.836c-17.903,-0 -32.796,14.892 -32.796,32.836c-0,17.945 14.933,32.837 32.837,32.837Zm-0,-6.185c-14.771,0 -26.571,-11.84 -26.571,-26.652c0,-14.811 11.76,-26.652 26.53,-26.652c14.812,0 26.693,11.841 26.693,26.652c-0,14.812 -11.841,26.652 -26.652,26.652Zm-14.974,-26.652c-0,1.791 1.261,3.012 3.133,3.012l8.748,-0l0,8.829c0,1.831 1.221,3.093 3.012,3.093c1.871,-0 3.092,-1.262 3.092,-3.093l-0,-8.829l8.83,-0c1.831,-0 3.092,-1.221 3.092,-3.012c0,-1.831 -1.261,-3.092 -3.092,-3.092l-8.83,-0l-0,-8.789c-0,-1.872 -1.221,-3.133 -3.092,-3.133c-1.791,-0 -3.012,1.261 -3.012,3.133l0,8.789l-8.748,-0c-1.872,-0 -3.133,1.261 -3.133,3.092Z" style="fill-rule:nonzero;"/></g><g><path d="M1223.23,8066.29c22.705,0 41.504,-18.839 41.504,-41.504c0,-22.705 -18.839,-41.503 -41.544,-41.503c-22.665,-0 -41.464,18.798 -41.464,41.503c0,22.665 18.84,41.504 41.504,41.504Zm0,-6.917c-19.205,0 -34.546,-15.381 -34.546,-34.587c0,-19.205 15.3,-34.586 34.506,-34.586c19.205,-0 34.627,15.381 34.627,34.586c0,19.206 -15.381,34.587 -34.587,34.587Zm-18.88,-34.587c0,1.994 1.384,3.337 3.459,3.337l11.963,0l-0,12.004c-0,2.034 1.383,3.458 3.377,3.458c2.034,0 3.458,-1.383 3.458,-3.458l0,-12.004l12.004,0c2.035,0 3.459,-1.343 3.459,-3.337c-0,-2.034 -1.424,-3.458 -3.459,-3.458l-12.004,-0l0,-11.963c0,-2.075 -1.424,-3.499 -3.458,-3.499c-1.994,-0.001 -3.377,1.424 -3.377,3.499l-0,11.963l-11.963,-0c-2.075,-0 -3.459,1.424 -3.459,3.458Z" style="fill-rule:nonzero;"/></g><g><path d="M1335.9,8077.77c29.012,-0 53.019,-24.007 53.019,-52.979c0,-29.012 -24.048,-53.019 -53.06,-53.019c-28.971,0 -52.938,24.007 -52.938,53.019c0,28.972 24.008,52.979 52.979,52.979Zm-0,-7.568c-25.147,-0 -45.37,-20.264 -45.37,-45.411c0,-25.187 20.183,-45.41 45.329,-45.41c25.188,0 45.451,20.223 45.451,45.41c-0,25.147 -20.223,45.411 -45.41,45.411Zm-24.048,-45.411c0,2.157 1.546,3.663 3.825,3.663l16.439,-0l-0,16.479c-0,2.238 1.546,3.825 3.703,3.825c2.238,-0 3.784,-1.546 3.784,-3.825l-0,-16.479l16.479,-0c2.238,-0 3.825,-1.506 3.825,-3.663c-0,-2.278 -1.546,-3.824 -3.825,-3.824l-16.479,-0l-0,-16.439c-0,-2.279 -1.546,-3.866 -3.784,-3.866c-2.157,0 -3.703,1.587 -3.703,3.866l-0,16.439l-16.439,-0c-2.279,-0 -3.825,1.546 -3.825,3.824Z" style="fill-rule:nonzero;"/></g><text x="1095.83px" y="8137.5px" style="font-family:'LucidaGrande-Bold', 'Lucida Grande', sans-serif;font-weight:600;font-size:54.167px;">Design Variations</text><text x="1095.83px" y="8212.5px" style="font-family:'LucidaGrande', 'Lucida Grande', sans-serif;font-weight:500;font-size:54.167px;">Symbols are supported in up to nine weights and three scales.</text><text x="1095.83px" y="8287.5px" style="font-family:'LucidaGrande', 'Lucida Grande', sans-serif;font-weight:500;font-size:54.167px;">For optimal layout with text and other symbols, vertically align</text><text x="1095.83px" y="8362.5px" style="font-family:'LucidaGrande', 'Lucida Grande', sans-serif;font-weight:500;font-size:54.167px;">symbols with the adjacent text.</text><path d="M3233.33,7995.83l0,58.334" style="fill:none;fill-rule:nonzero;stroke:#00aeef;stroke-width:2.08px;"/><g><path d="M3247.13,8054.82c2.157,-0 3.215,-0.814 3.988,-3.093l5.249,-14.363l24.007,-0l5.249,14.363c0.773,2.279 1.831,3.093 3.947,3.093c2.157,-0 3.54,-1.302 3.54,-3.337c0,-0.692 -0.122,-1.343 -0.447,-2.197l-19.084,-50.822c-0.936,-2.482 -2.604,-3.744 -5.208,-3.744c-2.523,0 -4.232,1.221 -5.127,3.703l-19.084,50.904c-0.326,0.854 -0.448,1.505 -0.448,2.197c0,2.034 1.302,3.296 3.418,3.296Zm11.231,-23.641l9.887,-27.385l0.204,0l9.888,27.385l-19.979,-0Z" style="fill-rule:nonzero;"/></g><path d="M3304.99,7995.83l-0.001,58.334" style="fill:none;fill-rule:nonzero;stroke:#00aeef;stroke-width:2.08px;"/><text x="3233.33px" y="8137.5px" style="font-family:'LucidaGrande-Bold', 'Lucida Grande', sans-serif;font-weight:600;font-size:54.167px;">Margins</text><text x="3233.33px" y="8212.5px" style="font-family:'LucidaGrande', 'Lucida Grande', sans-serif;font-weight:500;font-size:54.167px;">Leading and trailing margins on the left and right side of each symbol</text><text x="3233.33px" y="8287.5px" style="font-family:'LucidaGrande', 'Lucida Grande', sans-serif;font-weight:500;font-size:54.167px;">can be adjusted by modifying the x-location of the margin guidelines.</text><text x="3233.33px" y="8362.5px" style="font-family:'LucidaGrande', 'Lucida Grande', sans-serif;font-weight:500;font-size:54.167px;">Modiﬁcations are automatically applied proportionally to all</text><text x="3233.33px" y="8437.5px" style="font-family:'LucidaGrande', 'Lucida Grande', sans-serif;font-weight:500;font-size:54.167px;">scales and weights.</text><g><path d="M5382.67,8061.94l7.08,7.121c3.581,3.622 7.691,3.378 11.556,-0.895l44.556,-49.113l-4.028,-4.069l-44.231,48.665c-1.464,1.669 -2.848,2.076 -4.801,0.123l-4.883,-4.843c-1.953,-1.912 -1.505,-3.336 0.163,-4.842l47.811,-45.003l-4.069,-4.028l-48.299,45.369c-4.11,3.825 -4.436,7.894 -0.855,11.515Zm26.734,-75.805c-1.75,1.709 -1.872,4.11 -0.896,5.737c0.977,1.506 2.889,2.482 5.575,1.79c6.103,-1.424 12.451,-1.668 18.392,2.238l-2.441,6.063c-1.425,3.459 -0.692,5.9 1.546,8.179l9.562,9.644c2.034,2.034 3.743,2.115 6.103,1.709l4.436,-0.814l2.767,2.807l-0.163,2.32c-0.163,2.075 0.366,3.662 2.401,5.656l3.173,3.092c1.994,1.994 4.557,2.116 6.511,0.163l12.125,-12.167c1.954,-1.953 1.872,-4.435 -0.122,-6.429l-3.214,-3.173c-1.994,-1.994 -3.54,-2.645 -5.534,-2.483l-2.401,0.204l-2.685,-2.645l1.017,-4.679c0.529,-2.36 -0.122,-4.191 -2.564,-6.633l-9.155,-9.114c-13.916,-13.835 -32.389,-13.51 -44.433,-1.465Zm6.225,1.546c10.132,-7.406 23.845,-6.144 33.122,3.133l10.132,10.051c0.976,0.976 1.139,1.75 0.854,3.174l-1.343,6.184l6.267,6.185l4.11,-0.244c1.058,-0.041 1.383,0.041 2.197,0.855l2.401,2.4l-10.173,10.173l-2.401,-2.401c-0.814,-0.814 -0.936,-1.139 -0.895,-2.238l0.285,-4.069l-6.226,-6.185l-6.348,1.058c-1.342,0.285 -1.952,0.163 -2.97,-0.814l-8.341,-8.341c-1.058,-0.977 -1.18,-1.668 -0.529,-3.215l3.662,-8.707c-6.511,-6.063 -14.974,-8.667 -23.438,-6.185c-0.651,0.162 -0.895,-0.366 -0.366,-0.814Z" style="fill-rule:nonzero;"/></g><text x="5370.83px" y="8137.5px" style="font-family:'LucidaGrande-Bold', 'Lucida Grande', sans-serif;font-weight:600;font-size:54.167px;">Exporting</text><text x="5370.83px" y="8212.5px" style="font-family:'LucidaGrande', 'Lucida Grande', sans-serif;font-weight:500;font-size:54.167px;">Symbols should be outlined when exporting to ensure the</text><text x="5370.83px" y="8287.5px" style="font-family:'LucidaGrande', 'Lucida Grande', sans-serif;font-weight:500;font-size:54.167px;">design is preserved when submitting to Xcode.</text><text id="template-version" x="12256.9px" y="8054.17px" style="font-family:'LucidaGrande', 'Lucida Grande', sans-serif;font-weight:500;font-size:54.167px;">Template v.3.0</text><text x="11881.9px" y="8129.17px" style="font-family:'LucidaGrande', 'Lucida Grande', sans-serif;font-weight:500;font-size:54.167px;">Requires Xcode 13 or greater</text><text id="descriptive-name" x="11728.9px" y="8204.17px" style="font-family:'LucidaGrande', 'Lucida Grande', sans-serif;font-weight:500;font-size:54.167px;">Generated from arrowshape.left.ﬁll</text><text x="12076.3px" y="8279.17px" style="font-family:'LucidaGrande', 'Lucida Grande', sans-serif;font-weight:500;font-size:54.167px;">Typeset at 100 points</text><text x="1095.83px" y="3025px" style="font-family:'LucidaGrande', 'Lucida Grande', sans-serif;font-weight:500;font-size:54.167px;">Small</text><text x="1095.83px" y="4816.67px" style="font-family:'LucidaGrande', 'Lucida Grande', sans-serif;font-weight:500;font-size:54.167px;">Medium</text><text x="1095.83px" y="6608.33px" style="font-family:'LucidaGrande', 'Lucida Grande', sans-serif;font-weight:500;font-size:54.167px;">Large</text></g><g id="Guides"><g id="H-reference"><path d="M1416.64,2900l11.017,0l107.043,-279.718l2.926,0l0,-13.861l-7.949,-0l-113.037,293.579Zm44.562,-102l147.054,0l-3.125,-9.369l-140.804,0l-3.125,9.369Zm180.963,102l11.017,-0l-113.023,-293.579l-5.023,-0l-0,13.861l107.029,279.718Z" style="fill:#27aae1;fill-rule:nonzero;"/></g><path id="Baseline-S" d="M1095.83,2933.33l11554.2,0" style="fill:none;fill-rule:nonzero;stroke:#27aae1;stroke-width:2.08px;"/><path id="Capline-S" d="M1095.83,2570.83l11554.2,0" style="fill:none;fill-rule:nonzero;stroke:#27aae1;stroke-width:2.08px;"/><g id="H-reference1" serif:id="H-reference"><path d="M1416.64,4691.67l11.017,-0l107.043,-279.718l2.926,-0l0,-13.861l-7.949,-0.001l-113.037,293.58Zm44.562,-102l147.054,0l-3.125,-9.369l-140.804,-0l-3.125,9.369Zm180.963,102l11.017,-0l-113.023,-293.579l-5.023,-0.001l-0,13.862l107.029,279.718Z" style="fill:#27aae1;fill-rule:nonzero;"/></g><path id="Baseline-M" d="M1095.83,4691.67l11554.2,-0" style="fill:none;fill-rule:nonzero;stroke:#27aae1;stroke-width:2.08px;"/><path id="Capline-M" d="M1095.83,4398.08l11554.2,0" style="fill:none;fill-rule:nonzero;stroke:#27aae1;stroke-width:2.08px;"/><g id="H-reference2" serif:id="H-reference"><path d="M1416.64,6483.33l11.017,0l107.043,-279.718l2.926,0l0,-13.861l-7.949,0l-113.037,293.579Zm44.562,-101.999l147.054,-0l-3.125,-9.369l-140.804,-0l-3.125,9.369Zm180.963,101.999l11.017,0l-113.023,-293.579l-5.023,0l-0,13.861l107.029,279.718Z" style="fill:#27aae1;fill-rule:nonzero;"/></g><path id="Baseline-L" d="M1095.83,6483.33l11554.2,0" style="fill:none;fill-rule:nonzero;stroke:#27aae1;stroke-width:2.08px;"/><path id="Capline-L" d="M1095.83,6189.75l11554.2,0" style="fill:none;fill-rule:nonzero;stroke:#27aae1;stroke-width:2.08px;"/><path id="left-margin-Ultralight-S" d="M2139.16,2503.27l0,497.233" style="fill:none;fill-rule:nonzero;stroke:#00aeef;stroke-width:2.08px;"/><path id="right-margin-Ultralight-S" d="M2525.1,2503.27l0,497.233" style="fill:none;fill-rule:nonzero;stroke:#00aeef;stroke-width:2.08px;"/><path id="left-margin-Regular-S" d="M5836.67,2503.27l-0,497.233" style="fill:none;fill-rule:nonzero;stroke:#00aeef;stroke-width:2.08px;"/><path id="right-margin-Regular-S" d="M6245.38,2503.27l0,497.233" style="fill:none;fill-rule:nonzero;stroke:#00aeef;stroke-width:2.08px;"/><path id="left-margin-Black-S" d="M12011.3,2503.27l0,497.233" style="fill:none;fill-rule:nonzero;stroke:#00aeef;stroke-width:2.08px;"/><path id="right-margin-Black-S" d="M12433.7,2503.27l-0,497.233" style="fill:none;fill-rule:nonzero;stroke:#00aeef;stroke-width:2.08px;"/></g><g id="Symbols"><g id="Black-S"><path d="M12214.4,2572.65c-8.545,0 -19.125,4.069 -25.635,10.986l-117.391,128.174c-10.783,11.597 -15.462,20.956 -15.462,33.366c-0,19.531 15.055,34.587 34.586,34.587l40.284,-0l-0,103.556c-0,31.942 18.717,50.659 50.659,50.659l64.087,0c31.942,0 50.862,-18.717 50.862,-50.659l0,-103.556l41.911,-0c19.531,-0 34.587,-15.056 34.587,-34.587c-0,-11.597 -4.069,-20.752 -15.463,-33.366l-117.594,-128.377c-6.51,-6.917 -16.276,-10.783 -25.431,-10.783Z" style="fill-rule:nonzero;"/></g><g id="Regular-S"><path d="M6033.2,2579.16c-5.494,-0 -12.004,2.237 -17.294,7.731l-119.425,126.139c-7.935,8.748 -11.393,15.666 -11.393,24.211c-0,11.596 8.545,20.548 20.141,20.548l63.477,0l0,130.819c0,24.21 13.631,38.452 37.435,38.452l54.321,-0c23.6,-0 37.435,-14.242 37.435,-38.452l-0,-130.819l62.052,0c11.597,0 21.363,-8.952 21.363,-20.955c-0,-8.545 -3.662,-14.242 -12.614,-23.804l-118.002,-126.139c-5.492,-5.494 -11.8,-7.731 -17.496,-7.731Z" style="fill-rule:nonzero;"/></g><g id="Ultralight-S"><path d="M2327.93,2590.51c-4.358,0 -8.598,1.292 -16.158,9.434l-115.83,124.626c-3.205,3.451 -5.717,7.151 -5.717,11.912c-0,6.677 5.139,10.331 11.438,10.331l70.477,0l-0,139.523c-0,19.102 9.847,29.37 28.353,29.37l53.375,-0c18.492,-0 28.353,-10.268 28.353,-29.37l-0,-139.523l71.891,0c6.299,0 11.523,-3.654 11.523,-10.36c0,-4.571 -2.526,-8.376 -5.612,-11.883l-115.92,-124.626c-7.575,-8.331 -11.801,-9.434 -16.173,-9.434Z" style="fill-rule:nonzero;"/></g></g></svg>